<?xml version="1.0" standalone="no"?>
<!DOCTYPE svg PUBLIC "-//W3C//DTD SVG 20010904//EN"
 "http://www.w3.org/TR/2001/REC-SVG-20010904/DTD/svg10.dtd">
<svg version="1.0" xmlns="http://www.w3.org/2000/svg"
 width="300.000000pt" height="300.000000pt" viewBox="0 0 300.000000 300.000000"
 preserveAspectRatio="xMidYMid meet">
<metadata>
Created by potrace 1.11, written by Peter Selinger 2001-2013
</metadata>
<g transform="translate(0.000000,300.000000) scale(0.100000,-0.100000)"
fill="#000000" stroke="none">
<path d="M0 1500 l0 -1500 1500 0 1500 0 0 1500 0 1500 -1500 0 -1500 0 0
-1500z m1790 636 c104 -34 173 -76 251 -155 96 -97 144 -188 166 -319 14 -83
14 -101 0 -184 -39 -230 -198 -408 -422 -474 -37 -10 -98 -17 -158 -18 -92 -1
-100 1 -118 23 -23 28 -24 59 -3 89 13 18 25 22 72 22 294 0 494 183 494 450
0 223 -153 404 -372 439 -97 16 -599 14 -605 -1 -3 -7 -4 -241 -3 -520 l3
-507 157 252 156 252 -56 37 c-62 41 -76 59 -67 87 6 20 383 221 414 221 40 0
44 -19 36 -227 -4 -109 -11 -215 -16 -235 -8 -32 -14 -38 -37 -38 -15 0 -56
18 -91 41 -35 22 -64 39 -65 37 -10 -15 -401 -645 -425 -685 -45 -73 -111 -89
-140 -34 -8 13 -11 245 -11 724 0 658 1 705 18 719 9 9 24 18 32 21 8 4 177 5
375 3 313 -2 367 -5 415 -20z"/>
</g>
</svg>
